<?xml version="1.0" standalone="no"?>
<!DOCTYPE svg PUBLIC "-//W3C//DTD SVG 20010904//EN"
 "http://www.w3.org/TR/2001/REC-SVG-20010904/DTD/svg10.dtd">
<svg version="1.0" xmlns="http://www.w3.org/2000/svg"
 width="4096.000000pt" height="3365.000000pt" viewBox="0 0 4096.000000 3365.000000"
 preserveAspectRatio="xMidYMid meet">

<g transform="translate(0.000000,3365.000000) scale(0.100000,-0.100000)"
fill="#000000" stroke="none">
<path d="M180 33635 c-57 -18 -124 -74 -153 -129 l-22 -41 0 -8075 c0 -7765 1
-8078 18 -8160 23 -108 76 -243 135 -342 61 -104 13170 -16492 13260 -16577
124 -117 264 -202 425 -256 177 -59 -308 -55 6633 -53 6295 3 6359 3 6399 23
115 57 175 205 133 325 -12 36 -26501 33157 -26572 33227 -68 66 -162 87 -256
58z"/>
<path d="M40630 33641 c-46 -14 -85 -39 -121 -78 -20 -21 -3951 -4932 -8736
-10913 -5478 -6848 -8705 -10891 -8716 -10918 -23 -58 -22 -146 4 -202 26 -58
62 -96 124 -128 l50 -27 6370 0 c5338 0 6382 2 6445 14 236 43 430 142 597
306 106 103 4091 5084 4155 5193 59 99 112 234 135 342 17 82 18 395 18 8160
l0 8075 -22 41 c-57 106 -195 167 -303 135z"/>
</g>
</svg>
